<?xml version="1.0" encoding="UTF-8" standalone="no"?>
<svg
   xmlns:dc="http://purl.org/dc/elements/1.1/"
   xmlns:cc="http://creativecommons.org/ns#"
   xmlns:rdf="http://www.w3.org/1999/02/22-rdf-syntax-ns#"
   xmlns:svg="http://www.w3.org/2000/svg"
   xmlns="http://www.w3.org/2000/svg"
   xmlns:xlink="http://www.w3.org/1999/xlink"
   xml:space="preserve"
   style="enable-background:new 0 0 512 512;"
   viewBox="0 0 512 512"
   y="0px"
   x="0px"
   id="BG"
   version="1.1"><metadata
   id="metadata877"><rdf:RDF><cc:Work
       rdf:about=""><dc:format>image/svg+xml</dc:format><dc:type
         rdf:resource="http://purl.org/dc/dcmitype/StillImage" /><dc:title></dc:title></cc:Work></rdf:RDF></metadata><defs
   id="defs875" />
<style
   id="style857"
   type="text/css">
	.st0{fill:#9a4dff;}
	.st1{fill:#FFFFFF;}
	.st2{clip-path:url(#XMLID_4_);}
	.st3{fill:#22272C;}
	.st4{fill:#FE0000;}
	.st5{fill:#FFCC00;}
</style>
<circle
   style="fill:#4463a4;fill-opacity:1"
   r="256"
   cy="256"
   cx="256"
   class="st0"
   id="BG_1_" />


<g
   transform="matrix(26.456611,0,0,27.44508,256.01254,258.60824)"
   fill="#fc0"
   id="g2260"
   style="fill:#fce35e;fill-opacity:1"><g
     transform="translate(0,-6)"
     style="fill:#fce35e;fill-opacity:1"
     id="use2262"><g
       style="fill:#fce35e;fill-opacity:1"
       id="g1502"><path
         style="fill:#fce35e;fill-opacity:1"
         transform="rotate(18,3.1568758,-0.5)"
         d="M 0,0 V 1 H 0.5 Z"
         id="path1498" /><path
         style="fill:#fce35e;fill-opacity:1"
         d="M 0,-1 0.30901699,-0.0489435 -0.16651127,0.105565 Z"
         id="use1500" /></g><g
       style="fill:#fce35e;fill-opacity:1"
       transform="rotate(72)"
       id="use1504"><path
         style="fill:#fce35e;fill-opacity:1"
         transform="rotate(18,3.1568758,-0.5)"
         d="M 0,0 V 1 H 0.5 Z"
         id="path1610" /><path
         style="fill:#fce35e;fill-opacity:1"
         d="M 0,-1 0.30901699,-0.0489435 -0.16651127,0.105565 Z"
         id="use1612" /></g><g
       style="fill:#fce35e;fill-opacity:1"
       transform="rotate(144)"
       id="use1506"><path
         style="fill:#fce35e;fill-opacity:1"
         transform="rotate(18,3.1568758,-0.5)"
         d="M 0,0 V 1 H 0.5 Z"
         id="path1616" /><path
         style="fill:#fce35e;fill-opacity:1"
         d="M 0,-1 0.30901699,-0.0489435 -0.16651127,0.105565 Z"
         id="use1618" /></g><g
       style="fill:#fce35e;fill-opacity:1"
       transform="rotate(-144)"
       id="use1508"><path
         style="fill:#fce35e;fill-opacity:1"
         transform="rotate(18,3.1568758,-0.5)"
         d="M 0,0 V 1 H 0.5 Z"
         id="path1622" /><path
         style="fill:#fce35e;fill-opacity:1"
         d="M 0,-1 0.30901699,-0.0489435 -0.16651127,0.105565 Z"
         id="use1624" /></g><g
       style="fill:#fce35e;fill-opacity:1"
       transform="rotate(-72)"
       id="use1510"><path
         style="fill:#fce35e;fill-opacity:1"
         transform="rotate(18,3.1568758,-0.5)"
         d="M 0,0 V 1 H 0.5 Z"
         id="path1628" /><path
         style="fill:#fce35e;fill-opacity:1"
         d="M 0,-1 0.30901699,-0.0489435 -0.16651127,0.105565 Z"
         id="use1630" /></g></g><g
     id="r"
     style="fill:#fce35e;fill-opacity:1"><g
       transform="rotate(72,-5.0759451,0.53350333)"
       style="fill:#fce35e;fill-opacity:1"
       id="use2265"><g
         style="fill:#fce35e;fill-opacity:1"
         id="g1518"><path
           style="fill:#fce35e;fill-opacity:1"
           transform="rotate(18,3.1568758,-0.5)"
           d="M 0,0 V 1 H 0.5 Z"
           id="path1514" /><path
           style="fill:#fce35e;fill-opacity:1"
           d="M 0,-1 0.30901699,-0.0489435 -0.16651127,0.105565 Z"
           id="use1516" /></g><g
         style="fill:#fce35e;fill-opacity:1"
         transform="rotate(72)"
         id="use1520"><path
           style="fill:#fce35e;fill-opacity:1"
           transform="rotate(18,3.1568758,-0.5)"
           d="M 0,0 V 1 H 0.5 Z"
           id="path1634" /><path
           style="fill:#fce35e;fill-opacity:1"
           d="M 0,-1 0.30901699,-0.0489435 -0.16651127,0.105565 Z"
           id="use1636" /></g><g
         style="fill:#fce35e;fill-opacity:1"
         transform="rotate(144)"
         id="use1522"><path
           style="fill:#fce35e;fill-opacity:1"
           transform="rotate(18,3.1568758,-0.5)"
           d="M 0,0 V 1 H 0.5 Z"
           id="path1640" /><path
           style="fill:#fce35e;fill-opacity:1"
           d="M 0,-1 0.30901699,-0.0489435 -0.16651127,0.105565 Z"
           id="use1642" /></g><g
         style="fill:#fce35e;fill-opacity:1"
         transform="rotate(-144)"
         id="use1524"><path
           style="fill:#fce35e;fill-opacity:1"
           transform="rotate(18,3.1568758,-0.5)"
           d="M 0,0 V 1 H 0.5 Z"
           id="path1646" /><path
           style="fill:#fce35e;fill-opacity:1"
           d="M 0,-1 0.30901699,-0.0489435 -0.16651127,0.105565 Z"
           id="use1648" /></g><g
         style="fill:#fce35e;fill-opacity:1"
         transform="rotate(-72)"
         id="use1526"><path
           style="fill:#fce35e;fill-opacity:1"
           transform="rotate(18,3.1568758,-0.5)"
           d="M 0,0 V 1 H 0.5 Z"
           id="path1652" /><path
           style="fill:#fce35e;fill-opacity:1"
           d="M 0,-1 0.30901699,-0.0489435 -0.16651127,0.105565 Z"
           id="use1654" /></g></g><g
       transform="rotate(72,-4.6626491,-2.0759451)"
       style="fill:#fce35e;fill-opacity:1"
       id="use2267"><g
         style="fill:#fce35e;fill-opacity:1"
         id="g1534"><path
           style="fill:#fce35e;fill-opacity:1"
           transform="rotate(18,3.1568758,-0.5)"
           d="M 0,0 V 1 H 0.5 Z"
           id="path1530" /><path
           style="fill:#fce35e;fill-opacity:1"
           d="M 0,-1 0.30901699,-0.0489435 -0.16651127,0.105565 Z"
           id="use1532" /></g><g
         style="fill:#fce35e;fill-opacity:1"
         transform="rotate(72)"
         id="use1536"><path
           style="fill:#fce35e;fill-opacity:1"
           transform="rotate(18,3.1568758,-0.5)"
           d="M 0,0 V 1 H 0.5 Z"
           id="path1658" /><path
           style="fill:#fce35e;fill-opacity:1"
           d="M 0,-1 0.30901699,-0.0489435 -0.16651127,0.105565 Z"
           id="use1660" /></g><g
         style="fill:#fce35e;fill-opacity:1"
         transform="rotate(144)"
         id="use1538"><path
           style="fill:#fce35e;fill-opacity:1"
           transform="rotate(18,3.1568758,-0.5)"
           d="M 0,0 V 1 H 0.5 Z"
           id="path1664" /><path
           style="fill:#fce35e;fill-opacity:1"
           d="M 0,-1 0.30901699,-0.0489435 -0.16651127,0.105565 Z"
           id="use1666" /></g><g
         style="fill:#fce35e;fill-opacity:1"
         transform="rotate(-144)"
         id="use1540"><path
           style="fill:#fce35e;fill-opacity:1"
           transform="rotate(18,3.1568758,-0.5)"
           d="M 0,0 V 1 H 0.5 Z"
           id="path1670" /><path
           style="fill:#fce35e;fill-opacity:1"
           d="M 0,-1 0.30901699,-0.0489435 -0.16651127,0.105565 Z"
           id="use1672" /></g><g
         style="fill:#fce35e;fill-opacity:1"
         transform="rotate(-72)"
         id="use1542"><path
           style="fill:#fce35e;fill-opacity:1"
           transform="rotate(18,3.1568758,-0.5)"
           d="M 0,0 V 1 H 0.5 Z"
           id="path1676" /><path
           style="fill:#fce35e;fill-opacity:1"
           d="M 0,-1 0.30901699,-0.0489435 -0.16651127,0.105565 Z"
           id="use1678" /></g></g><g
       transform="translate(6)"
       style="fill:#fce35e;fill-opacity:1"
       id="use2269"><g
         style="fill:#fce35e;fill-opacity:1"
         id="g1550"><path
           style="fill:#fce35e;fill-opacity:1"
           transform="rotate(18,3.1568758,-0.5)"
           d="M 0,0 V 1 H 0.5 Z"
           id="path1546" /><path
           style="fill:#fce35e;fill-opacity:1"
           d="M 0,-1 0.30901699,-0.0489435 -0.16651127,0.105565 Z"
           id="use1548" /></g><g
         style="fill:#fce35e;fill-opacity:1"
         transform="rotate(72)"
         id="use1552"><path
           style="fill:#fce35e;fill-opacity:1"
           transform="rotate(18,3.1568758,-0.5)"
           d="M 0,0 V 1 H 0.5 Z"
           id="path1682" /><path
           style="fill:#fce35e;fill-opacity:1"
           d="M 0,-1 0.30901699,-0.0489435 -0.16651127,0.105565 Z"
           id="use1684" /></g><g
         style="fill:#fce35e;fill-opacity:1"
         transform="rotate(144)"
         id="use1554"><path
           style="fill:#fce35e;fill-opacity:1"
           transform="rotate(18,3.1568758,-0.5)"
           d="M 0,0 V 1 H 0.5 Z"
           id="path1688" /><path
           style="fill:#fce35e;fill-opacity:1"
           d="M 0,-1 0.30901699,-0.0489435 -0.16651127,0.105565 Z"
           id="use1690" /></g><g
         style="fill:#fce35e;fill-opacity:1"
         transform="rotate(-144)"
         id="use1556"><path
           style="fill:#fce35e;fill-opacity:1"
           transform="rotate(18,3.1568758,-0.5)"
           d="M 0,0 V 1 H 0.5 Z"
           id="path1694" /><path
           style="fill:#fce35e;fill-opacity:1"
           d="M 0,-1 0.30901699,-0.0489435 -0.16651127,0.105565 Z"
           id="use1696" /></g><g
         style="fill:#fce35e;fill-opacity:1"
         transform="rotate(-72)"
         id="use1558"><path
           style="fill:#fce35e;fill-opacity:1"
           transform="rotate(18,3.1568758,-0.5)"
           d="M 0,0 V 1 H 0.5 Z"
           id="path1700" /><path
           style="fill:#fce35e;fill-opacity:1"
           d="M 0,-1 0.30901699,-0.0489435 -0.16651127,0.105565 Z"
           id="use1702" /></g></g><g
       transform="rotate(144,-2.1106967,-2.3441661)"
       style="fill:#fce35e;fill-opacity:1"
       id="use2271"><g
         style="fill:#fce35e;fill-opacity:1"
         id="g1566"><path
           style="fill:#fce35e;fill-opacity:1"
           transform="rotate(18,3.1568758,-0.5)"
           d="M 0,0 V 1 H 0.5 Z"
           id="path1562" /><path
           style="fill:#fce35e;fill-opacity:1"
           d="M 0,-1 0.30901699,-0.0489435 -0.16651127,0.105565 Z"
           id="use1564" /></g><g
         style="fill:#fce35e;fill-opacity:1"
         transform="rotate(72)"
         id="use1568"><path
           style="fill:#fce35e;fill-opacity:1"
           transform="rotate(18,3.1568758,-0.5)"
           d="M 0,0 V 1 H 0.5 Z"
           id="path1706" /><path
           style="fill:#fce35e;fill-opacity:1"
           d="M 0,-1 0.30901699,-0.0489435 -0.16651127,0.105565 Z"
           id="use1708" /></g><g
         style="fill:#fce35e;fill-opacity:1"
         transform="rotate(144)"
         id="use1570"><path
           style="fill:#fce35e;fill-opacity:1"
           transform="rotate(18,3.1568758,-0.5)"
           d="M 0,0 V 1 H 0.5 Z"
           id="path1712" /><path
           style="fill:#fce35e;fill-opacity:1"
           d="M 0,-1 0.30901699,-0.0489435 -0.16651127,0.105565 Z"
           id="use1714" /></g><g
         style="fill:#fce35e;fill-opacity:1"
         transform="rotate(-144)"
         id="use1572"><path
           style="fill:#fce35e;fill-opacity:1"
           transform="rotate(18,3.1568758,-0.5)"
           d="M 0,0 V 1 H 0.5 Z"
           id="path1718" /><path
           style="fill:#fce35e;fill-opacity:1"
           d="M 0,-1 0.30901699,-0.0489435 -0.16651127,0.105565 Z"
           id="use1720" /></g><g
         style="fill:#fce35e;fill-opacity:1"
         transform="rotate(-72)"
         id="use1574"><path
           style="fill:#fce35e;fill-opacity:1"
           transform="rotate(18,3.1568758,-0.5)"
           d="M 0,0 V 1 H 0.5 Z"
           id="path1724" /><path
           style="fill:#fce35e;fill-opacity:1"
           d="M 0,-1 0.30901699,-0.0489435 -0.16651127,0.105565 Z"
           id="use1726" /></g></g><g
       transform="rotate(-144,-2.3441661,-2.1106967)"
       style="fill:#fce35e;fill-opacity:1"
       id="use2273"><g
         style="fill:#fce35e;fill-opacity:1"
         id="g1582"><path
           style="fill:#fce35e;fill-opacity:1"
           transform="rotate(18,3.1568758,-0.5)"
           d="M 0,0 V 1 H 0.5 Z"
           id="path1578" /><path
           style="fill:#fce35e;fill-opacity:1"
           d="M 0,-1 0.30901699,-0.0489435 -0.16651127,0.105565 Z"
           id="use1580" /></g><g
         style="fill:#fce35e;fill-opacity:1"
         transform="rotate(72)"
         id="use1584"><path
           style="fill:#fce35e;fill-opacity:1"
           transform="rotate(18,3.1568758,-0.5)"
           d="M 0,0 V 1 H 0.5 Z"
           id="path1730" /><path
           style="fill:#fce35e;fill-opacity:1"
           d="M 0,-1 0.30901699,-0.0489435 -0.16651127,0.105565 Z"
           id="use1732" /></g><g
         style="fill:#fce35e;fill-opacity:1"
         transform="rotate(144)"
         id="use1586"><path
           style="fill:#fce35e;fill-opacity:1"
           transform="rotate(18,3.1568758,-0.5)"
           d="M 0,0 V 1 H 0.5 Z"
           id="path1736" /><path
           style="fill:#fce35e;fill-opacity:1"
           d="M 0,-1 0.30901699,-0.0489435 -0.16651127,0.105565 Z"
           id="use1738" /></g><g
         style="fill:#fce35e;fill-opacity:1"
         transform="rotate(-144)"
         id="use1588"><path
           style="fill:#fce35e;fill-opacity:1"
           transform="rotate(18,3.1568758,-0.5)"
           d="M 0,0 V 1 H 0.5 Z"
           id="path1742" /><path
           style="fill:#fce35e;fill-opacity:1"
           d="M 0,-1 0.30901699,-0.0489435 -0.16651127,0.105565 Z"
           id="use1744" /></g><g
         style="fill:#fce35e;fill-opacity:1"
         transform="rotate(-72)"
         id="use1590"><path
           style="fill:#fce35e;fill-opacity:1"
           transform="rotate(18,3.1568758,-0.5)"
           d="M 0,0 V 1 H 0.5 Z"
           id="path1748" /><path
           style="fill:#fce35e;fill-opacity:1"
           d="M 0,-1 0.30901699,-0.0489435 -0.16651127,0.105565 Z"
           id="use1750" /></g></g></g><g
     transform="translate(0,6)"
     style="fill:#fce35e;fill-opacity:1"
     id="use2275"><g
       style="fill:#fce35e;fill-opacity:1"
       id="g1598"><path
         style="fill:#fce35e;fill-opacity:1"
         transform="rotate(18,3.1568758,-0.5)"
         d="M 0,0 V 1 H 0.5 Z"
         id="path1594" /><path
         style="fill:#fce35e;fill-opacity:1"
         d="M 0,-1 0.30901699,-0.0489435 -0.16651127,0.105565 Z"
         id="use1596" /></g><g
       style="fill:#fce35e;fill-opacity:1"
       transform="rotate(72)"
       id="use1600"><path
         style="fill:#fce35e;fill-opacity:1"
         transform="rotate(18,3.1568758,-0.5)"
         d="M 0,0 V 1 H 0.5 Z"
         id="path1754" /><path
         style="fill:#fce35e;fill-opacity:1"
         d="M 0,-1 0.30901699,-0.0489435 -0.16651127,0.105565 Z"
         id="use1756" /></g><g
       style="fill:#fce35e;fill-opacity:1"
       transform="rotate(144)"
       id="use1602"><path
         style="fill:#fce35e;fill-opacity:1"
         transform="rotate(18,3.1568758,-0.5)"
         d="M 0,0 V 1 H 0.5 Z"
         id="path1760" /><path
         style="fill:#fce35e;fill-opacity:1"
         d="M 0,-1 0.30901699,-0.0489435 -0.16651127,0.105565 Z"
         id="use1762" /></g><g
       style="fill:#fce35e;fill-opacity:1"
       transform="rotate(-144)"
       id="use1604"><path
         style="fill:#fce35e;fill-opacity:1"
         transform="rotate(18,3.1568758,-0.5)"
         d="M 0,0 V 1 H 0.5 Z"
         id="path1766" /><path
         style="fill:#fce35e;fill-opacity:1"
         d="M 0,-1 0.30901699,-0.0489435 -0.16651127,0.105565 Z"
         id="use1768" /></g><g
       style="fill:#fce35e;fill-opacity:1"
       transform="rotate(-72)"
       id="use1606"><path
         style="fill:#fce35e;fill-opacity:1"
         transform="rotate(18,3.1568758,-0.5)"
         d="M 0,0 V 1 H 0.5 Z"
         id="path1772" /><path
         style="fill:#fce35e;fill-opacity:1"
         d="M 0,-1 0.30901699,-0.0489435 -0.16651127,0.105565 Z"
         id="use1774" /></g></g><use
     xlink:href="#r"
     transform="scale(-1,1)"
     id="use2277"
     style="fill:#fce35e;fill-opacity:1"
     x="0"
     y="0"
     width="100%"
     height="100%" /></g></svg>
